<svg width="294" height="295" viewBox="0 0 294 295" fill="none" xmlns="http://www.w3.org/2000/svg">
<g clip-path="url(#clip0)">
<path d="M292.618 17.8366L0.254458 52.9482C0.220499 52.9524 0.186058 52.9466 0.155345 52.9316C0.123388 52.9155 0.0956784 52.8921 0.0744589 52.8633C0.0499386 52.8306 0.0314202 52.7937 0.0197601 52.7545C0.00633582 52.7095 -0.000321354 52.6627 1.19198e-05 52.6157C2.21095e-05 52.5671 0.00679015 52.5188 0.0201327 52.472C0.0326294 52.4288 0.0514365 52.3877 0.0759494 52.35C0.0972892 52.316 0.124709 52.2864 0.156835 52.2624C0.185858 52.2406 0.219982 52.2267 0.255949 52.2218L292.618 16.6257C292.71 16.6139 292.803 16.6186 292.893 16.6397C292.974 16.6586 293.051 16.6934 293.119 16.7421C293.182 16.7878 293.234 16.8473 293.27 16.9161C293.307 16.9863 293.326 17.0644 293.326 17.1436C293.326 17.2276 293.307 17.3104 293.27 17.3862C293.233 17.465 293.181 17.5365 293.119 17.597C293.052 17.6611 292.976 17.7141 292.893 17.754C292.807 17.7965 292.714 17.8245 292.618 17.8366Z" fill="#CACACA" fill-opacity="0.6"/>
<path d="M293.145 294.996L0.187493 265.222C0.153447 265.218 0.12112 265.205 0.0944604 265.184C0.0668165 265.161 0.0449282 265.132 0.0305507 265.099C0.0138287 265.062 0.00385372 265.022 0.0010998 264.981C-0.00209937 264.934 0.00169115 264.887 0.0123376 264.842C0.0230253 264.794 0.0402632 264.748 0.0635488 264.706C0.0852335 264.666 0.112613 264.63 0.144822 264.599C0.173094 264.57 0.206367 264.548 0.242982 264.531C0.276076 264.516 0.312452 264.51 0.348609 264.513L293.411 293.815C293.503 293.823 293.593 293.848 293.676 293.889C293.751 293.925 293.818 293.976 293.873 294.038C293.925 294.096 293.963 294.166 293.983 294.241C294.004 294.317 294.005 294.398 293.988 294.475C293.969 294.557 293.932 294.634 293.88 294.7C293.826 294.768 293.76 294.827 293.686 294.872C293.607 294.92 293.521 294.955 293.431 294.976C293.338 294.998 293.241 295.005 293.145 294.996Z" fill="#CACACA" fill-opacity="0.6"/>
<path d="M6.06059 38.9998C6.44133 38.9411 6.83094 38.9938 7.18233 39.1514C7.54376 39.3185 7.85951 39.5702 8.10282 39.885C8.3822 40.2447 8.59328 40.6525 8.7256 41.0881C8.88036 41.5916 8.95719 42.1158 8.95344 42.6425C8.95391 43.1898 8.87721 43.7344 8.7256 44.2603C8.58666 44.7478 8.37683 45.2122 8.10282 45.6388C7.85901 46.0232 7.54709 46.3599 7.18233 46.6326C6.85323 46.8786 6.46753 47.0381 6.06059 47.0966C5.67992 47.1484 5.29238 47.0893 4.94454 46.9264C4.5874 46.7538 4.27646 46.499 4.03735 46.1829C3.76376 45.8238 3.55717 45.4185 3.42748 44.9863C3.2763 44.4886 3.20103 43.971 3.2042 43.4508C3.20411 42.9104 3.27926 42.3726 3.42748 41.8528C3.56345 41.3695 3.76874 40.9083 4.03698 40.4837C4.27716 40.0991 4.58457 39.7608 4.94456 39.4847C5.27056 39.2332 5.65407 39.0665 6.06059 38.9998Z" fill="#3F3D56" fill-opacity="0.6"/>
<path d="M16.2192 37.4779C16.617 37.4165 17.024 37.4691 17.393 37.6295C17.7698 37.7973 18.1006 38.0531 18.3575 38.3753C18.6491 38.7409 18.8701 39.1575 19.0092 39.6037C19.171 40.118 19.2513 40.6544 19.2473 41.1934C19.2474 41.7539 19.1668 42.3115 19.008 42.8491C18.8622 43.3488 18.643 43.8241 18.3575 44.2595C18.1011 44.6547 17.7748 45.0001 17.3945 45.2786C17.0488 45.5329 16.6457 45.698 16.2207 45.7594C15.8231 45.8135 15.4183 45.7542 15.053 45.5884C14.6809 45.4142 14.3556 45.1543 14.1037 44.8301C13.8178 44.4652 13.6012 44.0512 13.4646 43.6085C13.3065 43.1004 13.2278 42.571 13.2311 42.0389C13.2311 41.4857 13.3097 40.9352 13.4646 40.4041C13.6073 39.9079 13.8222 39.4353 14.1022 39.0013C14.3548 38.6062 14.6764 38.2594 15.0515 37.9776C15.3942 37.7186 15.795 37.5471 16.2192 37.4779Z" fill="#3F3D56" fill-opacity="0.6"/>
<path d="M26.8528 35.8825C27.2686 35.8178 27.6943 35.8696 28.0824 36.0322C28.4749 36.202 28.8209 36.4634 29.0913 36.7943C29.3963 37.166 29.6282 37.5919 29.7749 38.0496C29.9447 38.5745 30.0294 39.1231 30.0259 39.6746C30.0258 40.249 29.9412 40.8203 29.7749 41.3701C29.621 41.8841 29.3906 42.3721 29.0913 42.8177C28.8212 43.2246 28.4793 43.5791 28.0824 43.8641C27.7185 44.1258 27.2967 44.2957 26.8528 44.3592C26.4371 44.4161 26.0137 44.357 25.6296 44.1882C25.2417 44.0128 24.9009 43.7482 24.6351 43.4159C24.3372 43.0443 24.1111 42.6207 23.9683 42.1667C23.8031 41.6483 23.7205 41.1073 23.7237 40.5633C23.7236 39.9958 23.806 39.4314 23.9683 38.8875C24.1182 38.3783 24.3429 37.894 24.6351 37.4506C24.9012 37.0433 25.2381 36.6868 25.63 36.3981C25.9905 36.1312 26.4098 35.9544 26.8528 35.8825Z" fill="#3F3D56" fill-opacity="0.6"/>
<path d="M276.861 2.38717L259.034 4.96038C258.868 4.98561 258.698 4.97931 258.534 4.9418C258.386 4.90768 258.246 4.84312 258.125 4.75223C258.009 4.66581 257.915 4.55399 257.85 4.42542C257.783 4.29112 257.748 4.14293 257.749 3.99282C257.75 3.83293 257.785 3.67503 257.85 3.52914C257.917 3.3785 258.01 3.24071 258.125 3.12194C258.244 2.9982 258.382 2.89437 258.534 2.81446C258.69 2.7317 258.859 2.67605 259.034 2.64991L276.861 0.0171812C277.036 -0.0100034 277.215 -0.00486469 277.388 0.0323447C277.544 0.0653466 277.69 0.129869 277.82 0.22191C277.944 0.310702 278.045 0.428194 278.114 0.564375C278.184 0.700557 278.219 0.851402 278.217 1.00408C278.216 1.16908 278.179 1.33194 278.11 1.48179C278.039 1.63785 277.94 1.78017 277.82 1.90225C277.561 2.1638 277.225 2.33439 276.861 2.3883L276.861 2.38717Z" fill="#3F3D56" fill-opacity="0.6"/>
<path d="M276.861 6.83028L259.035 9.29467C258.868 9.31888 258.698 9.31154 258.534 9.27305C258.386 9.23873 258.247 9.17418 258.125 9.08349C258.009 8.9964 257.915 8.88409 257.85 8.75514C257.782 8.61908 257.748 8.46888 257.749 8.31687C257.75 8.15722 257.785 7.99955 257.85 7.85394C257.917 7.70386 258.01 7.56669 258.125 7.44864C258.244 7.32619 258.382 7.22377 258.534 7.14535C258.69 7.06352 258.86 7.0089 259.035 6.98383L276.861 4.46028C277.036 4.43424 277.215 4.44054 277.388 4.47886C277.544 4.51323 277.691 4.57904 277.82 4.67223C277.942 4.76039 278.041 4.87549 278.111 5.00852C278.182 5.14681 278.218 5.30018 278.217 5.45553C278.216 5.62029 278.179 5.78291 278.11 5.93248C278.038 6.08752 277.94 6.2287 277.819 6.34953C277.56 6.6097 277.224 6.77827 276.86 6.82952L276.861 6.83028Z" fill="#3F3D56" fill-opacity="0.6"/>
<path d="M276.861 11.2734L259.034 13.6241C258.867 13.6473 258.698 13.6389 258.534 13.5995C258.386 13.5638 258.246 13.4979 258.125 13.4061C258.007 13.3167 257.912 13.2011 257.846 13.0684C257.781 12.9357 257.748 12.7896 257.749 12.6417C257.75 12.4822 257.784 12.3247 257.85 12.1792C257.917 12.0295 258.01 11.8928 258.125 11.7754C258.244 11.6528 258.382 11.5503 258.534 11.4721C258.69 11.3912 258.86 11.3376 259.034 11.3136L276.861 8.90388C277.037 8.87898 277.215 8.88642 277.388 8.92586C277.544 8.96125 277.691 9.02795 277.82 9.12189C277.942 9.21082 278.041 9.32653 278.111 9.46007C278.182 9.59854 278.218 9.75199 278.217 9.90745C278.216 10.072 278.179 10.2344 278.11 10.3837C278.039 10.5388 277.94 10.68 277.819 10.8007C277.56 11.0593 277.223 11.2259 276.86 11.2746L276.861 11.2734Z" fill="#3F3D56" fill-opacity="0.6"/>
<path d="M192.107 52.3018L278.218 45.0201V96.2682L192.107 97.39V52.3018Z" fill="#F0F0F0" fill-opacity="0.6"/>
<path d="M259.209 119.435L208.069 118.42C207.479 118.409 206.915 118.172 206.495 117.758C206.293 117.559 206.132 117.324 206.019 117.064C205.904 116.799 205.845 116.512 205.845 116.223C205.844 115.935 205.904 115.651 206.019 115.388C206.131 115.133 206.293 114.902 206.495 114.709C206.699 114.514 206.939 114.36 207.202 114.256C207.478 114.147 207.772 114.094 208.069 114.098L259.209 114.771C259.556 114.775 259.899 114.841 260.222 114.968C260.527 115.087 260.808 115.26 261.052 115.48C261.286 115.691 261.476 115.946 261.612 116.23C261.747 116.516 261.818 116.828 261.818 117.144C261.818 117.458 261.748 117.768 261.612 118.052C261.477 118.331 261.286 118.581 261.052 118.785C260.808 118.997 260.526 119.161 260.222 119.27C259.897 119.385 259.554 119.441 259.209 119.433L259.209 119.435Z" fill="#E4E4E4" fill-opacity="0.6"/>
<path d="M250.424 111.378L215.802 111.088C215.497 111.085 215.196 111.025 214.914 110.909C214.645 110.798 214.399 110.637 214.19 110.435C213.983 110.237 213.818 110 213.702 109.739C213.585 109.471 213.524 109.182 213.524 108.89C213.524 108.598 213.585 108.309 213.702 108.042C213.818 107.781 213.983 107.546 214.19 107.35C214.399 107.15 214.645 106.992 214.913 106.884C215.196 106.771 215.498 106.713 215.802 106.714L250.424 106.773C250.761 106.773 251.096 106.835 251.411 106.956C251.709 107.07 251.983 107.238 252.22 107.452C252.449 107.659 252.635 107.909 252.767 108.189C252.899 108.47 252.967 108.777 252.967 109.088C252.967 109.399 252.899 109.706 252.767 109.987C252.635 110.265 252.449 110.513 252.22 110.717C251.983 110.929 251.709 111.095 251.411 111.206C251.096 111.324 250.761 111.382 250.424 111.379L250.424 111.378Z" fill="#E4E4E4" fill-opacity="0.6"/>
<path d="M192.107 134.292L278.218 138.212V189.46L192.107 179.38V134.292Z" fill="#F0F0F0" fill-opacity="0.6"/>
<path d="M259.209 210.154L208.069 202.487C207.764 202.44 207.47 202.339 207.202 202.187C206.936 202.038 206.697 201.846 206.495 201.618C206.295 201.396 206.134 201.141 206.019 200.864C205.905 200.59 205.846 200.297 205.845 200C205.843 199.72 205.902 199.442 206.019 199.187C206.13 198.949 206.292 198.738 206.495 198.571C206.702 198.401 206.943 198.278 207.202 198.21C207.485 198.137 207.78 198.121 208.069 198.165L259.209 205.49C259.563 205.541 259.905 205.652 260.222 205.819C260.53 205.979 260.81 206.189 261.052 206.438C261.285 206.679 261.475 206.958 261.612 207.263C261.746 207.559 261.816 207.88 261.818 208.204C261.82 208.51 261.749 208.812 261.612 209.085C261.479 209.345 261.287 209.571 261.052 209.745C260.804 209.927 260.522 210.056 260.222 210.122C259.889 210.196 259.545 210.207 259.209 210.154L259.209 210.154Z" fill="#E4E4E4" fill-opacity="0.6"/>
<path d="M250.424 200.955L215.802 196.161C215.491 196.117 215.19 196.017 214.914 195.866C214.643 195.718 214.398 195.526 214.19 195.297C213.985 195.075 213.82 194.818 213.703 194.539C213.586 194.263 213.525 193.966 213.524 193.666C213.522 193.382 213.583 193.1 213.702 192.842C213.816 192.599 213.983 192.385 214.19 192.214C214.402 192.04 214.648 191.913 214.913 191.842C215.203 191.765 215.505 191.746 215.802 191.787L250.424 196.35C250.768 196.396 251.102 196.501 251.411 196.661C251.712 196.816 251.985 197.019 252.22 197.263C252.448 197.498 252.633 197.771 252.766 198.07C252.897 198.361 252.965 198.677 252.967 198.996C252.969 199.298 252.9 199.597 252.766 199.868C252.637 200.126 252.45 200.352 252.22 200.527C251.98 200.71 251.704 200.84 251.411 200.91C251.088 200.987 250.753 201.002 250.424 200.955V200.955Z" fill="#E4E4E4" fill-opacity="0.6"/>
<path d="M142.084 179.768L6.69534 162.461C6.32685 162.409 5.97751 162.265 5.67954 162.042C5.35198 161.798 5.07193 161.496 4.85323 161.152C4.60854 160.771 4.42135 160.355 4.29767 159.919C4.16234 159.448 4.0937 158.96 4.09375 158.47V73.1048C4.09318 72.6173 4.16183 72.1322 4.29767 71.664C4.42059 71.2365 4.60792 70.8301 4.85323 70.4588C5.07137 70.1244 5.35174 69.8349 5.67915 69.6061C5.97971 69.3961 6.32974 69.2677 6.69496 69.2334L142.084 58.1656C142.664 58.1158 143.247 58.1935 143.794 58.3933C144.341 58.5931 144.837 58.9101 145.247 59.3219C145.664 59.7387 145.993 60.235 146.213 60.7812C146.451 61.3707 146.572 62.0005 146.57 62.636V175.502C146.573 176.132 146.452 176.757 146.213 177.34C145.994 177.874 145.665 178.356 145.247 178.755C144.841 179.142 144.354 179.433 143.821 179.608C143.261 179.79 142.667 179.845 142.084 179.768Z" fill="white"/>
<path d="M88.5511 116.82C88.1879 116.348 87.7785 115.914 87.3291 115.524C86.9016 115.152 86.4358 114.827 85.9396 114.554C85.4612 114.291 84.9544 114.082 84.429 113.933C83.9124 113.786 83.38 113.701 82.8432 113.681C82.3124 113.661 81.7812 113.706 81.2612 113.814C80.7431 113.922 80.2396 114.091 79.7609 114.317C79.2719 114.547 78.8102 114.832 78.3843 115.165C77.9407 115.512 77.5349 115.904 77.1734 116.336L40.7439 159.803C40.3231 160.318 39.7841 160.724 39.1725 160.987C38.6122 161.22 38.0011 161.306 37.398 161.235C36.768 161.157 36.1647 160.934 35.6356 160.583C35.0288 160.18 34.5055 159.664 34.0946 159.063L29.2689 152.137C28.7138 151.316 28.002 150.612 27.1743 150.066C26.4669 149.601 25.6579 149.312 24.8153 149.223C24.0154 149.147 23.2095 149.283 22.4792 149.617C21.6796 149.994 20.982 150.557 20.4449 151.258L11.7144 162.311L133.761 177.695V175.534L88.5511 116.82Z" fill="#F0F0F0" fill-opacity="0.6"/>
<path d="M142.083 181.399L6.69527 163.714C6.20154 163.642 5.7338 163.447 5.33504 163.148C4.89683 162.82 4.52233 162.416 4.23 161.953C3.90315 161.443 3.65315 160.886 3.48799 160.303C3.30725 159.673 3.21547 159.021 3.21533 158.365V73.1692C3.21487 72.5178 3.30667 71.8697 3.48799 71.244C3.65192 70.6708 3.90211 70.1258 4.23 69.6277C4.52173 69.1795 4.89669 68.7912 5.33465 68.4838C5.73686 68.2015 6.20552 68.0281 6.69488 67.9807L142.083 56.5307C142.861 56.4619 143.645 56.5643 144.379 56.8308C145.113 57.0973 145.779 57.5213 146.331 58.0731C146.892 58.6317 147.335 59.2976 147.632 60.0309C147.952 60.8226 148.115 61.6689 148.112 62.5226V175.687C148.116 176.533 147.953 177.373 147.632 178.156C147.337 178.873 146.894 179.52 146.331 180.054C145.785 180.572 145.13 180.961 144.414 181.195C143.662 181.436 142.865 181.506 142.083 181.4L142.083 181.399ZM6.69527 70.4861C6.4543 70.508 6.2232 70.5921 6.02465 70.7302C5.80823 70.8808 5.62284 71.0716 5.47858 71.2921C5.31624 71.5373 5.19229 71.8058 5.111 72.0883C5.02107 72.3974 4.97554 72.7177 4.9758 73.0395V158.573C4.97586 158.897 5.02137 159.219 5.111 159.53C5.19281 159.818 5.31667 160.093 5.47858 160.344C5.62304 160.573 5.80841 160.773 6.02541 160.934C6.22226 161.08 6.4529 161.175 6.69603 161.209L142.084 178.132C142.469 178.182 142.86 178.146 143.229 178.025C143.58 177.909 143.9 177.716 144.167 177.461C144.442 177.198 144.658 176.88 144.802 176.528C144.959 176.144 145.038 175.733 145.036 175.318V62.749C145.038 62.3309 144.958 61.9165 144.802 61.5285C144.657 61.1687 144.441 60.8416 144.167 60.5667C143.897 60.2947 143.571 60.085 143.211 59.9525C142.851 59.8199 142.466 59.7676 142.084 59.7993L6.69527 70.4861Z" fill="#CBCBCB" fill-opacity="0.6"/>
<path d="M25.6841 270.233L29.7548 270.232L31.6912 254.556L25.6836 254.557L25.6841 270.233Z" fill="#FFB6B6"/>
<path d="M24.646 268.906L32.6626 268.905H32.6629C34.0178 268.905 35.3172 269.443 36.2753 270.399C37.2333 271.356 37.7716 272.653 37.7717 274.006V274.172L24.6462 274.172L24.646 268.906Z" fill="#425466"/>
<path d="M63.2036 275.597L67.2743 275.596L69.2107 259.92L63.2031 259.92L63.2036 275.597Z" fill="#FFB6B6"/>
<path d="M62.1655 274.269L70.1821 274.269H70.1825C71.5374 274.269 72.8367 274.807 73.7948 275.763C74.7529 276.72 75.2912 278.017 75.2913 279.37V279.536L62.1658 279.536L62.1655 274.269Z" fill="#425466"/>
<path d="M58.2889 149.657L60.9453 166.564L35.7104 166.896L39.031 150.652L58.2889 149.657Z" fill="#FFB6B6"/>
<path d="M60.213 162.436L68.2501 183.803L69.2462 272.349H62.4395L46.17 201.207L31.2285 265.128H24.5879L29.2363 192.588C29.2363 192.588 27.8656 176.951 34.8809 167.725L36.5885 162.799L60.213 162.436Z" fill="#0A2540"/>
<path d="M25.7388 179.092C26.4414 178.901 27.0935 178.558 27.6491 178.088C28.2048 177.618 28.6504 177.033 28.9547 176.372C29.259 175.711 29.4145 174.992 29.4103 174.265C29.4061 173.538 29.2423 172.821 28.9304 172.164L39.6655 137.22L31.7694 135.657L21.9511 169.909C20.8803 170.506 20.0658 171.473 19.6619 172.629C19.258 173.785 19.2928 175.049 19.7597 176.181C20.2266 177.313 21.0931 178.234 22.1951 178.771C23.2971 179.307 24.558 179.422 25.7388 179.092Z" fill="#FFB6B6"/>
<path d="M39.8966 158.995C39.7493 158.995 39.6024 158.98 39.4579 158.952C38.972 158.855 38.5313 158.601 38.2031 158.231C37.8748 157.86 37.6772 157.392 37.6402 156.899C37.3906 153.487 36.1538 147.548 33.9642 139.246C33.2251 136.424 33.3888 133.442 34.4324 130.718C35.4761 127.994 37.3473 125.665 39.7838 124.056C42.2204 122.447 45.1 121.64 48.0191 121.748C50.9383 121.855 53.7505 122.872 56.0616 124.656C57.5413 125.788 58.7764 127.207 59.6923 128.828C60.6082 130.449 61.1861 132.238 61.3911 134.087C62.4794 143.656 60.4278 153.263 59.4952 156.949C59.3727 157.43 59.0955 157.858 58.7062 158.167C58.3169 158.476 57.8369 158.649 57.3397 158.659L39.945 158.994C39.9288 158.995 39.9128 158.995 39.8966 158.995Z" fill="#E4577D"/>
<path d="M88.4944 128.3C88.3899 128.534 88.3041 128.776 88.2377 129.024L66.4644 136.411L62.2572 132.741L55.8804 138.357L62.6961 145.576C63.2467 146.159 63.972 146.548 64.763 146.685C65.554 146.821 66.368 146.698 67.0829 146.333L90.3816 134.451C91.2242 134.967 92.2041 135.215 93.1911 135.161C94.178 135.108 95.1253 134.755 95.9068 134.151C96.6883 133.547 97.2671 132.72 97.5661 131.779C97.8651 130.838 97.8701 129.829 97.5806 128.886C97.2911 127.942 96.7208 127.109 95.9454 126.497C95.17 125.885 94.2264 125.523 93.24 125.459C92.2536 125.396 91.2712 125.634 90.4235 126.141C89.5758 126.649 88.9029 127.402 88.4944 128.3V128.3Z" fill="#FFB6B6"/>
<path d="M65.7055 136.814L57.7683 143.736C57.5424 143.933 57.2767 144.079 56.9893 144.164C56.7018 144.249 56.3993 144.272 56.1024 144.23C55.8056 144.188 55.5213 144.082 55.2689 143.92C55.0165 143.759 54.802 143.545 54.6399 143.293L48.9626 134.466C47.9602 133.307 47.4591 131.798 47.5692 130.27C47.6792 128.742 48.3915 127.321 49.5499 126.317C50.7082 125.312 52.2181 124.808 53.7485 124.913C55.2789 125.019 56.7049 125.726 57.714 126.88L65.6864 133.66C65.9146 133.854 66.0982 134.095 66.2247 134.366C66.3512 134.638 66.4176 134.933 66.4195 135.233C66.4213 135.532 66.3584 135.828 66.2352 136.101C66.112 136.374 65.9314 136.617 65.7055 136.814Z" fill="#E4577D"/>
<path d="M38.4112 146.167L28.6024 142.32C28.3233 142.21 28.0712 142.042 27.8631 141.827C27.655 141.611 27.4959 141.353 27.3966 141.071C27.2972 140.788 27.2601 140.488 27.2876 140.19C27.3151 139.891 27.4067 139.603 27.556 139.343L32.7894 130.247C33.3586 128.825 34.4694 127.686 35.8783 127.08C37.2872 126.474 38.8793 126.451 40.3054 127.015C41.7316 127.579 42.8755 128.685 43.4864 130.09C44.0972 131.495 44.1252 133.084 43.5642 134.51L41.2071 144.698C41.1395 144.989 41.0098 145.263 40.8267 145.5C40.6436 145.737 40.4115 145.932 40.1462 146.072C39.8809 146.211 39.5885 146.292 39.2891 146.308C38.9898 146.325 38.6903 146.277 38.4112 146.167Z" fill="#E4577D"/>
<path d="M45.6823 119.594C51.5749 119.594 56.3518 114.825 56.3518 108.941C56.3518 103.058 51.5749 98.2886 45.6823 98.2886C39.7896 98.2886 35.0127 103.058 35.0127 108.941C35.0127 114.825 39.7896 119.594 45.6823 119.594Z" fill="#FFB6B6"/>
<path d="M59.9664 105.35H43.0244V97.977C46.743 96.502 50.3818 95.2476 52.5814 97.977C54.5401 97.977 56.4184 98.7538 57.8034 100.137C59.1883 101.519 59.9664 103.395 59.9664 105.35V105.35Z" fill="#0A2540"/>
<path d="M42.0475 119.979C48.7907 119.979 54.2571 114.521 54.2571 107.788C54.2571 101.056 48.7907 95.598 42.0475 95.598C35.3043 95.598 29.8379 101.056 29.8379 107.788C29.8379 114.521 35.3043 119.979 42.0475 119.979Z" fill="#0A2540"/>
<path d="M33.2565 106.325C37.5722 106.325 41.0707 102.833 41.0707 98.5237C41.0707 94.2149 37.5722 90.7219 33.2565 90.7219C28.9409 90.7219 25.4424 94.2149 25.4424 98.5237C25.4424 102.833 28.9409 106.325 33.2565 106.325Z" fill="#0A2540"/>
</g>
<defs>
<clipPath id="clip0">
<rect width="294" height="295" fill="white"/>
</clipPath>
</defs>
</svg>
